:FULLY-SPECIFIED
:FORCE-ALL-JOINTS-BE-3DOF
:DEGREES
33
root 8.01559 15.7118 -32.0093 7.66958 -8.12196 -7.08578
lfemur -41.5359 5.94409 -9.63346
ltibia 25.3023 0 0
lfoot -7.87886 10.8859 0
ltoes -11.1283 0 0
rfemur 19.6839 6.7614 30.2016
rtibia 1.4607e-14 0 0
rfoot -11.5713 -0.572513 0
rtoes -24.2146 0 0
lowerback -8.45878 1.45597 3.56099
upperback -1.00841 1.45566 3.67893
thorax 3.69296 0.746683 1.9866
lowerneck -20.8065 -4.5341 -11.7552
upperneck 16.2896 -5.78035 14.5705
head 9.36399 -1.9034 6.24819
lclavicle -1.39959e-14 -2.4443e-15 0
lhumerus -43.3621 -8.06002 91.2651
lradius 25.7774 0 0
lwrist 2.85773 0 0
lhand -9.40996 -23.6571 0
lfingers 7.12502 0 0
lthumb 16.5491 5.62557 0
rclavicle -1.39959e-14 -2.4443e-15 0
rhumerus -44.2968 20.7335 -93.1407
rradius 60.1508 0 0
rwrist -29.4088 0 0
rhand -30.4517 -31.016 0
rfingers 7.12502 0 0
rthumb -3.75361 -60.9624 0
34
root 8.06364 15.6957 -31.7393 7.70927 -8.27379 -7.02421
lfemur -42.0974 6.75163 -10.274
ltibia 27.3264 0 0
lfoot -5.07696 10.0934 0
ltoes -9.26718 0 0
rfemur 20.6379 6.61533 29.7649
rtibia 1.09332e-14 0 0
rfoot -10.019 -0.666566 0
rtoes -14.8874 0 0
lowerback -8.62254 1.38778 3.29814
upperback -0.99676 1.37308 3.81182
thorax 3.78765 0.701574 2.26818
lowerneck -20.9681 -4.54068 -11.7063
upperneck 16.2265 -5.74556 14.4116
head 9.3584 -1.89506 6.18447
lclavicle -1.12825e-14 -7.93895e-15 0
lhumerus -43.6564 -8.01466 91.5768
lradius 25.4885 0 0
lwrist 2.52796 0 0
lhand -8.6557 -22.8446 0
lfingers 7.12502 0 0
lthumb 17.2734 6.35762 0
rclavicle -1.12825e-14 -7.93895e-15 0
rhumerus -44.5355 20.8021 -93.3366
rradius 59.4566 0 0
rwrist -29.0124 0 0
rhand -30.3662 -30.8243 0
rfingers 7.12502 0 0
rthumb -3.67104 -60.7719 0
35
root 8.10131 15.6827 -31.5245 7.73507 -8.40397 -6.97141
lfemur -42.5711 7.3932 -10.768
ltibia 29.0005 0 0
lfoot -2.65204 9.48785 0
ltoes -7.64309 0 0
rfemur 21.4142 6.50859 29.4111
rtibia 6.24332e-15 0 0
rfoot -8.69233 -0.793089 0
rtoes -5.83426 0 0
lowerback -8.74739 1.33623 3.06685
upperback -0.982043 1.31295 3.92151
thorax 3.86513 0.668074 2.5091
lowerneck -21.0999 -4.54848 -11.6456
upperneck 16.1621 -5.72212 14.2668
head 9.34891 -1.89095 6.12201
lclavicle -8.78898e-15 -1.37897e-14 0
lhumerus -43.8974 -8.01262 91.8541
lradius 25.2844 0 0
lwrist 2.3056 0 0
lhand -8.13278 -22.1416 0
lfingers 7.12502 0 0
lthumb 17.7761 7.00977 0
rclavicle -8.78898e-15 -1.37897e-14 0
rhumerus -44.7162 20.8597 -93.4845
rradius 58.8962 0 0
rwrist -28.7268 0 0
rhand -30.2651 -30.5986 0
rfingers 7.12502 0 0
rthumb -3.57344 -60.5477 0
36
root 8.11817 15.6758 -31.4215 7.74703 -8.47439 -6.94865
lfemur -42.8372 7.72396 -10.991
ltibia 29.8568 0 0
lfoot -1.1926 9.21359 0
ltoes -6.71522 0 0
rfemur 21.8059 6.46539 29.2416
rtibia 1.28842e-15 0 0
rfoot -7.99661 -0.932008 0
rtoes 0.986863 0 0
lowerback -8.81753 1.31264 2.92874
upperback -0.96396 1.28657 3.98447
thorax 3.91863 0.652795 2.65129
lowerneck -21.1741 -4.55389 -11.5818
upperneck 16.1171 -5.71405 14.1645
head 9.33971 -1.89135 6.07292
lclavicle -7.27132e-15 -1.88233e-14 0
lhumerus -44.029 -8.06363 92.0393
lradius 25.228 0 0
lwrist 2.26706 0 0
lhand -8.15487 -21.7913 0
lfingers 7.12502 0 0
lthumb 17.756 7.37509 0
rclavicle -7.27132e-15 -1.88233e-14 0
rhumerus -44.7884 20.9088 -93.5488
rradius 58.6364 0 0
rwrist -28.6128 0 0
rhand -30.1532 -30.3566 0
rfingers 7.12502 0 0
rthumb -3.46538 -60.3077 0
37
root 8.10381 15.6779 -31.4868 7.7452 -8.44692 -6.97722
lfemur -42.7763 7.59908 -10.8186
ltibia 29.4276 0 0
lfoot -1.28713 9.41507 0
ltoes -6.94272 0 0
rfemur 21.6062 6.50996 29.3578
rtibia -3.18055e-15 0 0
rfoot -8.33698 -1.06325 0
rtoes 3.61817 0 0
lowerback -8.81713 1.32831 2.94539
upperback -0.942207 1.30523 3.97714
thorax 3.94135 0.662346 2.63672
lowerneck -21.163 -4.55331 -11.5231
upperneck 16.1126 -5.72538 14.1334
head 9.33499 -1.89653 6.0493
lclavicle -7.48549e-15 -2.18663e-14 0
lhumerus -43.995 -8.1774 92.075
lradius 25.382 0 0
lwrist 2.4887 0 0
lhand -9.03565 -22.037 0
lfingers 7.12502 0 0
lthumb 16.9121 7.24666 0
rclavicle -7.48549e-15 -2.18663e-14 0
rhumerus -44.7013 20.9519 -93.4939
rradius 58.8441 0 0
rwrist -28.7311 0 0
rhand -30.0352 -30.116 0
rfingers 7.12502 0 0
rthumb -3.35142 -60.0694 0
38
root 8.14954 15.6727 -31.2711 7.73194 -8.56792 -6.84904
lfemur -42.9991 8.00715 -11.3728
ltibia 30.9323 0 0
lfoot -0.442162 8.83716 0
ltoes -5.87119 0 0
rfemur 22.1818 6.37398 28.9156
rtibia 0.226166 0 0
rfoot -7.02793 -0.819803 0
rtoes 0.660521 0 0
lowerback -8.80356 1.27793 2.80452
upperback -1.00084 1.25228 4.01128
thorax 3.87008 0.634165 2.744
lowerneck -21.2157 -4.55628 -11.643
upperneck 16.1027 -5.69188 14.1646
head 9.34055 -1.88367 6.08664
lclavicle -5.9003e-15 -1.70817e-14 0
lhumerus -44.1371 -7.88918 92.0472
lradius 24.9613 0 0
lwrist 1.89281 0 0
lhand -6.74226 -21.1756 0
lfingers 7.12502 0 0
lthumb 19.1102 7.81169 0
rclavicle -5.9003e-15 -1.70817e-14 0
rhumerus -44.9568 20.8439 -93.6528
rradius 58.1259 0 0
rwrist -28.4005 0 0
rhand -30.2681 -30.5533 0
rfingers 7.12502 0 0
rthumb -3.57628 -60.5021 0
39
root 8.21062 15.6707 -30.9985 7.68909 -8.72703 -6.63631
lfemur -43.1596 8.40635 -12.0993
ltibia 32.7696 0 0
lfoot 0.03407 8.15327 0
ltoes -4.68667 0 0
rfemur 22.7675 6.19033 28.2896
rtibia 0.72373 0 0
rfoot -5.32762 -0.401843 0
rtoes -6.84756 0 0
lowerback -8.7136 1.21474 2.63879
upperback -1.10638 1.19124 4.02073
thorax 3.70843 0.602015 2.8357
lowerneck -21.2498 -4.5574 -11.8557
upperneck 16.1098 -5.64522 14.2634
head 9.35189 -1.86433 6.16773
lclavicle -4.0465e-15 -7.77466e-15 0
lhumerus -44.2795 -7.41482 91.8948
lradius 24.3564 0 0
lwrist 1.00742 0 0
lhand -3.23519 -20.0046 0
lfingers 7.12502 0 0
lthumb 22.4712 8.52537 0
rclavicle -4.0465e-15 -7.77466e-15 0
rhumerus -45.3042 20.641 -93.8509
rradius 57.1301 0 0
rwrist -27.9797 0 0
rhand -30.6645 -31.2906 0
rfingers 7.12502 0 0
rthumb -3.95911 -61.2316 0
40
root 8.27318 15.6697 -30.7253 7.63821 -8.88579 -6.41273
lfemur -43.2888 8.76205 -12.8293
ltibia 34.6077 0 0
lfoot 0.256616 7.47568 0
ltoes -3.55954 0 0
rfemur 23.3449 6.00588 27.6528
rtibia 1.22129 0 0
rfoot -3.59591 0.0841956 0
rtoes -16.5102 0 0
lowerback -8.59622 1.15346 2.48985
upperback -1.22435 1.13397 4.017
thorax 3.51941 0.571971 2.90355
lowerneck -21.2683 -4.55932 -12.1006
upperneck 16.1214 -5.59902 14.3953
head 9.36425 -1.8444 6.26676
lclavicle -2.2805e-15 3.45392e-15 0
lhumerus -44.4029 -6.89457 91.6893
lradius 23.7123 0 0
lwrist 0.0543706 0 0
lhand 0.669997 -18.7699 0
lfingers 7.12502 0 0
lthumb 26.2136 9.24842 0
rclavicle -2.2805e-15 3.45392e-15 0
rhumerus -45.6653 20.4024 -94.0496
rradius 56.1035 0 0
rwrist -27.5606 0 0
rhand -31.1298 -32.1676 0
rfingers 7.12502 0 0
rthumb -4.4084 -62.0996 0
41
root 8.32337 15.6674 -30.5084 7.60084 -9.00571 -6.25205
lfemur -43.4178 9.03966 -13.3939
ltibia 36.1148 0 0
lfoot 0.340526 6.91671 0
ltoes -2.66018 0 0
rfemur 23.8954 5.86748 27.1778
rtibia 1.44746 0 0
rfoot -2.19264 0.53188 0
rtoes -25.9313 0 0
lowerback -8.50037 1.10877 2.39936
upperback -1.32026 1.09235 4.01157
thorax 3.36601 0.55011 2.93929
lowerneck -21.2741 -4.5647 -12.3172
upperneck 16.1247 -5.56689 14.5261
head 9.37283 -1.82976 6.35792
lclavicle -9.58668e-16 1.40033e-14 0
lhumerus -44.4878 -6.46869 91.502
lradius 23.1742 0 0
lwrist -0.744512 0 0
lhand 4.15771 -17.7174 0
lfingers 7.12502 0 0
lthumb 29.5556 9.84154 0
rclavicle -9.58668e-16 1.40033e-14 0
rhumerus -45.9622 20.1868 -94.2105
rradius 55.2931 0 0
rwrist -27.2352 0 0
rhand -31.5691 -33.0239 0
rfingers 7.12502 0 0
rthumb -4.83262 -62.9474 0
42
root 8.3473 15.6616 -30.4043 7.59852 -9.04832 -6.22799
lfemur -43.5777 9.20455 -13.6243
ltibia 36.959 0 0
lfoot 0.40085 6.58863 0
ltoes -2.15896 0 0
rfemur 24.4003 5.822 27.0374
rtibia 1.13083 0 0
rfoot -1.47765 0.834778 0
rtoes -32.7152 0 0
lowerback -8.47502 1.09537 2.40898
upperback -1.35964 1.07823 4.01596
thorax 3.31123 0.542508 2.93464
lowerneck -21.2702 -4.57617 -12.4448
upperneck 16.1072 -5.56246 14.6213
head 9.37287 -1.8263 6.41539
lclavicle -4.37415e-16 2.12728e-14 0
lhumerus -44.5148 -6.27742 91.4043
lradius 22.8871 0 0
lwrist -1.1674 0 0
lhand 6.41237 -17.093 0
lfingers 7.12502 0 0
lthumb 31.7158 10.1655 0
rclavicle -4.37415e-16 2.12728e-14 0
rhumerus -46.1168 20.0533 -94.295
rradius 54.9457 0 0
rwrist -27.0955 0 0
rhand -31.8877 -33.6995 0
rfingers 7.12502 0 0
rthumb -5.14029 -63.6168 0
43
root 8.33113 15.65 -30.4696 7.65281 -8.97514 -6.41427
lfemur -43.7996 9.22212 -13.3516
ltibia 36.8086 0 0
lfoot 0.55264 6.60375 0
ltoes -2.22627 0 0
rfemur 24.8411 5.91629 27.4045
rtibia 6.36111e-14 0 0
rfoot -1.81081 0.886455 0
rtoes -34.4658 0 0
lowerback -8.56913 1.12797 2.56035
upperback -1.30801 1.10347 4.04168
thorax 3.41808 0.555243 2.88133
lowerneck -21.2596 -4.59641 -12.423
upperneck 16.0562 -5.59935 14.6465
head 9.35958 -1.83992 6.41337
lclavicle -1.07313e-15 2.26615e-14 0
lhumerus -44.4645 -6.46103 91.4677
lradius 22.9962 0 0
lwrist -0.992459 0 0
lhand 6.61839 -17.1426 0
lfingers 7.12502 0 0
lthumb 31.9124 10.0809 0
rclavicle -1.07313e-15 2.26615e-14 0
rhumerus -46.0509 20.0609 -94.2645
rradius 55.3083 0 0
rwrist -27.2335 0 0
rhand -31.9908 -34.034 0
rfingers 7.12502 0 0
rthumb -5.23988 -63.9492 0
44
root 8.38441 15.6806 -30.2559 7.50405 -9.19125 -5.90103
lfemur -43.2122 9.2055 -14.1642
ltibia 37.4712 0 0
lfoot -0.0519485 6.457 0
ltoes -1.93931 0 0
rfemur 23.7744 5.62334 26.3625
rtibia 3.00175 0 0
rfoot -0.617998 0.876836 0
rtoes -33.8523 0 0
lowerback -8.28962 1.04281 2.17642
upperback -1.46779 1.04003 3.95966
thorax 3.09485 0.523352 2.99716
lowerneck -21.2802 -4.54864 -12.5419
upperneck 16.192 -5.50424 14.6374
head 9.39819 -1.80331 6.45032
lclavicle 6.46777e-16 2.32799e-14 0
lhumerus -44.5697 -5.8773 91.2063
lradius 22.5724 0 0
lwrist -1.66888 0 0
lhand 7.14325 -16.7663 0
lfingers 7.12502 0 0
lthumb 32.4171 10.406 0
rclavicle 6.46777e-16 2.32799e-14 0
rhumerus -46.25 19.9304 -94.3621
rradius 54.1404 0 0
rwrist -26.7924 0 0
rhand -31.8717 -33.4859 0
rfingers 7.12502 0 0
rthumb -5.12486 -63.4036 0
45
root 8.45299 15.7322 -29.9886 7.27459 -9.50147 -5.12151
lfemur -42.1779 9.06073 -15.2764
ltibia 37.9559 0 0
lfoot -1.17133 6.43571 0
ltoes -1.8484 0 0
rfemur 21.7851 5.18382 24.8371
rtibia 7.86865 0 0
rfoot 0.818842 0.695642 0
rtoes -29.9873 0 0
lowerback -7.86171 0.924454 1.59221
upperback -1.69529 0.95707 3.82066
thorax 2.61795 0.482163 3.16079
lowerneck -21.3096 -4.46979 -12.6588
upperneck 16.4153 -5.36404 14.5832
head 9.4596 -1.74975 6.48046
lclavicle 2.86621e-15 2.10712e-14 0
lhumerus -44.689 -5.0769 90.8237
lradius 22.0724 0 0
lwrist -2.49533 0 0
lhand 6.78725 -16.5471 0
lfingers 7.12502 0 0
lthumb 32.0788 10.7005 0
rclavicle 2.86621e-15 2.10712e-14 0
rhumerus -46.4424 19.7674 -94.4522
rradius 52.5028 0 0
rwrist -26.1833 0 0
rhand -31.5276 -32.311 0
rfingers 7.12502 0 0
rthumb -4.79256 -62.2356 0
46
root 8.52257 15.7904 -29.7215 7.02033 -9.83031 -4.26792
lfemur -40.999 8.84833 -16.4414
ltibia 38.2833 0 0
lfoot -2.47154 6.49589 0
ltoes -1.88339 0 0
rfemur 19.482 4.71735 23.1941
rtibia 13.2784 0 0
rfoot 2.21884 0.442602 0
rtoes -24.5282 0 0
lowerback -7.39085 0.797057 0.950682
upperback -1.93868 0.86903 3.66468
thorax 2.10057 0.438614 3.33762
lowerneck -21.3379 -4.38005 -12.7646
upperneck 16.6658 -5.21014 14.5076
head 9.52683 -1.69129 6.50383
lclavicle 5.17374e-15 1.71949e-14 0
lhumerus -44.814 -4.23258 90.4188
lradius 21.5863 0 0
lwrist -3.31099 0 0
lhand 5.92496 -16.4435 0
lfingers 7.12502 0 0
lthumb 31.2557 10.9494 0
rclavicle 5.17374e-15 1.71949e-14 0
rhumerus -46.6273 19.6213 -94.5331
rradius 50.795 0 0
rwrist -25.5549 0 0
rhand -31.0869 -30.8816 0
rfingers 7.12502 0 0
rthumb -4.367 -60.815 0
